<?xml version="1.0" encoding="UTF-8" standalone="no"?>
<!-- Created with Inkscape (http://www.inkscape.org/) -->

<svg
   xmlns:dc="http://purl.org/dc/elements/1.1/"
   xmlns:cc="http://creativecommons.org/ns#"
   xmlns:rdf="http://www.w3.org/1999/02/22-rdf-syntax-ns#"
   xmlns:svg="http://www.w3.org/2000/svg"
   xmlns="http://www.w3.org/2000/svg"
   xmlns:sodipodi="http://sodipodi.sourceforge.net/DTD/sodipodi-0.dtd"
   xmlns:inkscape="http://www.inkscape.org/namespaces/inkscape"
   width="327"
   height="217"
   id="svg2"
   version="1.1"
   inkscape:version="0.48.4 r9939"
   sodipodi:docname="Flag of Limbuwan.svg">
  <defs
     id="defs4" />
  <sodipodi:namedview
     id="base"
     pagecolor="#ffffff"
     bordercolor="#666666"
     borderopacity="1.0"
     inkscape:pageopacity="0.0"
     inkscape:pageshadow="2"
     inkscape:zoom="1.4"
     inkscape:cx="234.5694"
     inkscape:cy="83.840742"
     inkscape:document-units="px"
     inkscape:current-layer="layer1"
     showgrid="false"
     inkscape:window-width="1366"
     inkscape:window-height="718"
     inkscape:window-x="-8"
     inkscape:window-y="-8"
     inkscape:window-maximized="1" />
  <metadata
     id="metadata7">
    <rdf:RDF>
      <cc:Work
         rdf:about="">
        <dc:format>image/svg+xml</dc:format>
        <dc:type
           rdf:resource="http://purl.org/dc/dcmitype/StillImage" />
        <dc:title></dc:title>
      </cc:Work>
    </rdf:RDF>
  </metadata>
  <g
     inkscape:label="Vrstva 1"
     inkscape:groupmode="layer"
     id="layer1"
     transform="translate(0,-835.36218)">
    <rect
       style="opacity:0.95999995;fill:#e20913;fill-opacity:1;stroke:none"
       id="rect3301"
       width="327"
       height="217"
       x="0"
       y="835.36218" />
    <path
       inkscape:connector-curvature="0"
       id="path3273"
       d="m 230.20953,947.98056 2.29047,-2.38162 36.37134,-0.6787 c 35.99772,-0.67172 36.39423,-0.6572 38.59916,1.41422 1.90317,1.78794 2.65052,1.93274 5.12865,0.99371 3.87124,-1.46692 7.40085,-4.88278 7.40085,-7.16233 0,-1.76887 -8.08532,-7.80366 -10.45523,-7.80366 -0.58502,0 -1.62574,0.9 -2.3127,2 -1.11634,1.78754 -2.33696,2.00086 -11.49054,2.00812 -5.63284,0.004 -22.61653,-0.49905 -37.74153,-1.11893 -20.66965,-0.84712 -27.89212,-1.47008 -29.07874,-2.50812 -0.86831,-0.75959 -2.07982,-1.38107 -2.69225,-1.38107 -1.55598,0 -14.22901,8.04406 -14.22901,9.0317 0,0.82237 13.91279,9.92763 15.20953,9.95392 0.39024,0.008 1.74024,-1.05735 3,-2.36724 z"
       style="fill:#ffffff"
       sodipodi:nodetypes="scsssssscsssscs" />
    <path
       inkscape:connector-curvature="0"
       id="path3271"
       d="m 183.60023,1040.9748 c 9.55013,-4.5353 17.15626,-11.7181 21.83281,-20.6176 4.34012,-8.2593 7.56671,-20.1969 7.56671,-27.99502 0,-7.79814 -3.22659,-19.73573 -7.56671,-27.995 -4.72926,-8.99978 -12.26232,-16.06701 -22.16774,-20.7969 -7.17805,-3.42757 -8.44644,-3.7081 -16.76555,-3.7081 -8.31911,0 -9.5875,0.28053 -16.76555,3.7081 -14.33683,6.84591 -23.4222,18.43115 -27.76245,35.40138 -2.49431,9.75268 -2.49431,17.02836 0,26.78104 4.1151,16.0899 13.10165,28.0843 25.87111,34.5303 8.30576,4.1927 12.32763,5.0766 20.99182,4.613 5.80134,-0.3104 8.88853,-1.1302 14.76555,-3.9212 z m -144.47602,-5.9626 c -0.65492,-0.7892 -2.52585,-1.9878 -4.15762,-2.6637 -1.63176,-0.6759 -2.96684,-1.8104 -2.96684,-2.5211 0,-1.3956 7.71602,-7.4774 9.447,-7.4462 2.01346,0.036 10.553,5.9933 10.553,7.3615 0,0.7573 -1.33508,1.9299 -2.96684,2.6058 -3.40175,1.409 -5.45374,3.5242 -4.6619,4.8054 1.02021,1.6507 17.86487,-2.0801 20.87874,-4.6244 3.7338,-3.1519 1.69294,-6.36 -6.46188,-10.1575 -6.43438,-2.9963 -7.59547,-6.6629 -3.79853,-11.9952 0.98744,-1.3867 2.92966,-5.9004 4.31603,-10.0303 1.38637,-4.12995 3.06692,-8.70784 3.73454,-10.17311 1.04671,-2.29728 0.90757,-3.15971 -1.0104,-6.26306 -1.22334,-1.9794 -1.99387,-4.19928 -1.7123,-4.93306 0.67096,-1.74849 -7.55933,-8.61509 -10.32601,-8.61509 l -2.12764,0 2.17384,3.05287 c 1.42527,2.00161 2.02805,4.04614 1.75047,5.93737 -0.34119,2.32471 0.005,2.99201 1.78396,3.4385 3.57623,0.89757 3.67495,3.35186 0.33036,8.21306 -3.38091,4.91399 -5.4417,6.21894 -7.13963,4.52101 -0.80367,-0.80367 -0.73413,-2.2197 0.25642,-5.22107 1.07064,-3.24409 1.10219,-4.47105 0.14859,-5.78003 -0.66581,-0.91394 -2.03086,-3.35375 -3.03345,-5.42179 l -1.82289,-3.76008 -3.23518,5.20433 c -2.39999,3.86076 -3.06702,5.86412 -2.58379,7.76008 2.26113,8.87153 -0.85464,10.34179 -6.18632,2.91916 -3.5958,-5.00598 -3.55965,-7.51071 0.12173,-8.43467 1.77591,-0.44573 2.12497,-1.11499 1.78603,-3.42433 -0.24177,-1.64729 0.26204,-3.8459 1.18239,-5.15988 2.01386,-2.87519 2.02499,-3.84453 0.0441,-3.84453 -2.34424,0 -10.35115,7.06916 -9.75792,8.61509 0.28157,0.73378 -0.48896,2.95366 -1.7123,4.93306 -1.92948,3.12197 -2.06063,3.95363 -0.98961,6.27539 0.67906,1.47205 2.04632,5.1977 3.03835,8.27922 0.99204,3.08156 3.17283,8.16846 4.8462,11.30426 3.75306,7.0331 3.02211,9.4953 -3.75559,12.6509 -8.05996,3.7525 -10.06057,6.9443 -6.35959,10.1461 2.04669,1.7706 4.4031,2.5136 13.25,4.1779 6.81009,1.281 9.15244,0.7116 7.12446,-1.7319 z m 245,-4 c -0.65492,-0.7892 -2.52585,-1.9878 -4.15762,-2.6637 -1.63176,-0.6759 -2.96684,-1.8104 -2.96684,-2.5211 0,-1.3956 7.71602,-7.4774 9.447,-7.4462 2.01346,0.036 10.553,5.9933 10.553,7.3615 0,0.7573 -1.33508,1.9299 -2.96684,2.6058 -3.40175,1.409 -5.45374,3.5242 -4.6619,4.8054 1.02021,1.6507 17.86487,-2.0801 20.87874,-4.6244 3.7338,-3.1519 1.69294,-6.36 -6.46188,-10.1575 -6.54745,-3.049 -7.60673,-6.6471 -3.60955,-12.2606 1.09139,-1.5327 3.02377,-6.0408 4.29419,-10.01798 1.27042,-3.97718 2.86592,-8.43565 3.54556,-9.9077 1.07223,-2.3224 0.94145,-3.15256 -0.98856,-6.27539 -1.22334,-1.9794 -1.99387,-4.19928 -1.7123,-4.93306 0.67096,-1.74849 -7.55932,-8.61509 -10.32601,-8.61509 l -2.12764,0 2.17384,3.05287 c 1.42527,2.00161 2.02805,4.04614 1.75048,5.93737 -0.3412,2.32471 0.005,2.99201 1.78395,3.4385 3.57623,0.89757 3.67495,3.35186 0.33036,8.21306 -3.38091,4.91399 -5.4417,6.21894 -7.13963,4.52101 -0.80367,-0.80367 -0.73448,-2.21862 0.25511,-5.2171 1.15054,-3.48616 1.1457,-4.44501 -0.0317,-6.28003 -0.76425,-1.19112 -2.14184,-3.6116 -3.0613,-5.37885 l -1.67176,-3.21316 -3.20603,5.15741 c -2.37517,3.82085 -3.03721,5.81974 -2.55462,7.71317 2.26113,8.87153 -0.85464,10.34179 -6.18632,2.91916 -3.5958,-5.00598 -3.55965,-7.51071 0.12173,-8.43467 1.77591,-0.44573 2.12497,-1.11499 1.78603,-3.42433 -0.24177,-1.64729 0.26204,-3.8459 1.18239,-5.15988 2.01386,-2.87519 2.02499,-3.84453 0.0441,-3.84453 -2.34423,0 -10.35115,7.06916 -9.75792,8.61509 0.28157,0.73378 -0.48896,2.95366 -1.7123,4.93306 -1.92296,3.11142 -2.05877,3.96147 -1.00256,6.27539 0.67194,1.47205 1.87259,4.5909 2.66813,6.93078 0.79554,2.33988 2.97467,7.4432 4.84252,11.3408 4.10103,8.5574 3.57712,10.7289 -3.36874,13.9628 -5.66701,2.6384 -8.10957,4.7293 -8.10957,6.9421 0,3.5116 3.44912,5.2089 15,7.3819 6.81009,1.281 9.15244,0.7116 7.12446,-1.7319 z m 28.12554,-103.85013 c 3.56335,-1.28999 3.46773,-2.01507 -0.68328,-5.1812 -3.85775,-2.94245 -5.56672,-3.30401 -5.56672,-1.17771 0,2.54463 -1.90192,2.77762 -13.81461,1.69235 -6.42696,-0.58551 -15.96039,-1.31639 -21.18539,-1.62418 -8.2084,-0.48354 -9.26207,-0.37126 -7.75,0.82586 0.9625,0.76201 1.75,1.73626 1.75,2.16499 0,0.42873 -0.7875,1.40914 -1.75,2.17869 -1.51083,1.20796 0.43667,1.32109 14.25,0.82783 8.8,-0.31424 18.61717,-0.82939 21.81594,-1.14477 5.35909,-0.52839 5.86036,-0.40357 6.38142,1.58897 0.39499,1.51045 1.05347,1.96376 2.18406,1.50356 0.89022,-0.36237 2.85608,-1.10684 4.36858,-1.65439 z M 37.12421,911.01215 c -0.65492,-0.78914 -2.52585,-1.98781 -4.15762,-2.6637 -1.63176,-0.6759 -2.96684,-1.81039 -2.96684,-2.52108 0,-1.3956 7.71602,-7.47742 9.447,-7.44619 2.01346,0.0363 10.553,5.99331 10.553,7.36152 0,0.75726 -1.33508,1.92985 -2.96684,2.60575 -3.40175,1.40905 -5.45374,3.5242 -4.6619,4.80542 1.02021,1.65073 17.86487,-2.08013 20.87874,-4.62436 3.71744,-3.13817 1.6894,-6.36201 -6.35959,-10.10946 -5.75317,-2.67855 -7.27579,-5.55204 -5.20624,-9.82519 1.85472,-3.82957 3.47576,-4.50939 6.20103,-2.60054 1.53587,1.07577 2.1148,2.5446 2.1148,5.36555 0,2.13635 0.47994,4.18089 1.06653,4.54343 1.46721,0.90678 1.57193,0.66884 2.33409,-5.30353 0.64516,-5.05558 0.53258,-5.40551 -2.86453,-8.9034 -1.94485,-2.00254 -3.53609,-4.00079 -3.53609,-4.44054 0,-0.85429 0.75635,-2.91646 3.51294,-9.57787 1.69344,-4.09229 1.68272,-4.26312 -0.48798,-7.77539 -1.2207,-1.97514 -1.98907,-4.19152 -1.7075,-4.9253 0.67096,-1.74849 -7.55933,-8.61509 -10.32601,-8.61509 l -2.12764,0 2.17384,3.05287 c 1.42527,2.00161 2.02805,4.04614 1.75047,5.93737 -0.34119,2.32471 0.005,2.99201 1.78396,3.4385 3.57623,0.89757 3.67495,3.35186 0.33036,8.21306 -3.38091,4.91399 -5.4417,6.21894 -7.13963,4.52101 -0.80367,-0.80367 -0.73448,-2.21862 0.25511,-5.2171 1.15053,-3.48616 1.1457,-4.44501 -0.0317,-6.28003 -0.76426,-1.19112 -2.14185,-3.61161 -3.06131,-5.37885 l -1.67176,-3.21316 -3.20602,5.15741 c -2.37518,3.82085 -3.03722,5.81974 -2.55463,7.71316 2.26113,8.87154 -0.85464,10.3418 -6.18631,2.91917 -3.59581,-5.00598 -3.55966,-7.51071 0.12172,-8.43467 1.77591,-0.44573 2.12498,-1.11499 1.78604,-3.42433 -0.24177,-1.64729 0.26204,-3.8459 1.18238,-5.15988 2.01386,-2.87519 2.02499,-3.84453 0.0441,-3.84453 -2.34424,0 -10.35115,7.06916 -9.75792,8.61509 0.28157,0.73378 -0.4868,2.95016 -1.70751,4.9253 -2.17069,3.51227 -2.18141,3.6831 -0.48797,7.77539 2.75658,6.66141 3.51294,8.72358 3.51294,9.57787 0,0.43975 -1.60178,2.44885 -3.55952,4.46466 -3.36558,3.46543 -3.52209,3.92328 -2.87258,8.40341 0.79884,5.51024 1.22626,6.48353 2.5012,5.69557 0.51199,-0.31643 0.9309,-2.32325 0.9309,-4.4596 0,-2.82095 0.57893,-4.28978 2.1148,-5.36555 2.72527,-1.90885 4.34631,-1.22903 6.20103,2.60054 2.06955,4.27315 0.54693,7.14664 -5.20624,9.82519 -8.05996,3.75255 -10.06057,6.94433 -6.35959,10.14611 2.04669,1.77063 4.4031,2.51363 13.25,4.17788 6.81009,1.28108 9.15244,0.71168 7.12446,-1.73189 z m 246,0 c -0.65492,-0.78914 -2.52585,-1.98781 -4.15762,-2.6637 -1.63176,-0.6759 -2.96684,-1.81039 -2.96684,-2.52108 0,-1.3956 7.71602,-7.47742 9.447,-7.44619 2.01346,0.0363 10.553,5.99331 10.553,7.36152 0,0.75726 -1.33508,1.92985 -2.96684,2.60575 -3.40175,1.40905 -5.45374,3.5242 -4.6619,4.80542 1.02021,1.65073 17.86487,-2.08013 20.87874,-4.62436 3.71744,-3.13817 1.6894,-6.36201 -6.35959,-10.10946 -5.75317,-2.67855 -7.27579,-5.55204 -5.20624,-9.82519 1.85472,-3.82957 3.47576,-4.50939 6.20103,-2.60054 1.53587,1.07577 2.1148,2.5446 2.1148,5.36555 0,2.13635 0.47994,4.18089 1.06653,4.54343 1.46721,0.90678 1.57193,0.66884 2.33409,-5.30353 0.64516,-5.05558 0.53258,-5.40551 -2.86453,-8.9034 -1.94485,-2.00254 -3.53609,-4.00079 -3.53609,-4.44054 0,-0.85429 0.75636,-2.91646 3.51294,-9.57787 1.69344,-4.09229 1.68272,-4.26312 -0.48798,-7.77539 -1.2207,-1.97514 -1.98907,-4.19152 -1.7075,-4.9253 0.67096,-1.74849 -7.55932,-8.61509 -10.32601,-8.61509 l -2.12764,0 2.17384,3.05287 c 1.42527,2.00161 2.02805,4.04614 1.75048,5.93737 -0.3412,2.32471 0.005,2.99201 1.78395,3.4385 3.57623,0.89757 3.67495,3.35186 0.33036,8.21306 -3.38091,4.91399 -5.4417,6.21894 -7.13963,4.52101 -0.80367,-0.80367 -0.73448,-2.21862 0.25511,-5.2171 1.15054,-3.48616 1.1457,-4.44501 -0.0317,-6.28003 -0.76425,-1.19112 -2.14184,-3.61161 -3.0613,-5.37885 l -1.67176,-3.21316 -3.20603,5.15741 c -2.37517,3.82085 -3.03721,5.81974 -2.55462,7.71316 2.26113,8.87154 -0.85464,10.3418 -6.18632,2.91917 -3.5958,-5.00598 -3.55965,-7.51071 0.12173,-8.43467 1.77591,-0.44573 2.12497,-1.11499 1.78603,-3.42433 -0.24177,-1.64729 0.26204,-3.8459 1.18239,-5.15988 2.01386,-2.87519 2.02499,-3.84453 0.0441,-3.84453 -2.34423,0 -10.35115,7.06916 -9.75792,8.61509 0.28157,0.73378 -0.4868,2.95016 -1.7075,4.9253 -2.1707,3.51227 -2.18142,3.6831 -0.48798,7.77539 2.75658,6.66141 3.51294,8.72358 3.51294,9.57787 0,0.43975 -1.60178,2.44885 -3.55952,4.46466 -3.36558,3.46543 -3.52209,3.92328 -2.87258,8.40341 0.79884,5.51024 1.22626,6.48353 2.5012,5.69557 0.51199,-0.31643 0.9309,-2.32325 0.9309,-4.4596 0,-2.82095 0.57893,-4.28978 2.1148,-5.36555 2.72527,-1.90885 4.34631,-1.22903 6.20103,2.60054 2.06955,4.27315 0.54693,7.14664 -5.20624,9.82519 -5.66703,2.63845 -8.10959,4.72938 -8.10959,6.94213 0,3.51156 3.44912,5.20895 15,7.38186 6.81009,1.28108 9.15244,0.71168 7.12446,-1.73189 z m -119.62446,-29.6328 c 1.1,-0.004 3.8,1.10173 6,2.45674 5.87167,3.61646 6.5,3.34396 6.5,-2.81892 0,-5.92479 1.33237,-7.82909 6.81493,-9.74032 4.13071,-1.43997 4.01618,-2.21859 -0.56493,-3.8408 -5.82115,-2.06132 -6.25,-2.72664 -6.25,-9.69632 0,-3.50765 -0.24293,-6.37755 -0.53984,-6.37755 -0.29691,0 -2.30398,0.9 -4.46016,2 -5.1378,2.62111 -5.94533,2.54662 -10.8413,-1 -2.27776,-1.65 -4.59528,-3 -5.15004,-3 -0.57491,0 -1.00866,2.79916 -1.00866,6.50924 l 0,6.50925 -5.03072,3.09543 -5.03072,3.09543 4.66416,2.95793 4.66416,2.95792 -0.55235,5.35182 c -0.3038,2.9435 -0.33266,5.57152 -0.0641,5.84005 0.26853,0.26852 2.36954,-0.58754 4.66892,-1.90238 2.29937,-1.31483 5.08068,-2.39371 6.18068,-2.39752 z"
       style="fill:#fce003;fill-opacity:1"
       sodipodi:nodetypes="sssssssssssscsscscscssssssscsssssssscssssssssssssssccccsscscscssssssscsssssssscsssssssssssscsccssssssssssssscsscsssssssscssssssscsssssssscsssssssssssssssssssscccsscsssssssscssssssscsssssssscsssssssssssssssssssscccsssssssssscccccscscc" />
    <path
       style="opacity:0.95999995;fill:#0b26b2;fill-opacity:1;stroke:none"
       d="m 297.92346,956.01433 c -0.21214,-0.84525 -0.78926,-1.44345 -1.58533,-1.64325 -0.68846,-0.1728 -6.06133,-0.0602 -11.9397,0.25018 -17.97442,0.94909 -27.46239,1.24689 -28.38966,0.89106 -0.81215,-0.31165 -0.79208,-0.43836 0.24419,-1.54142 0.93304,-0.99318 1.03079,-1.38553 0.56297,-2.25967 -0.31137,-0.58179 -0.78541,-1.0578 -1.05343,-1.0578 -0.26802,0 -0.48731,-0.22729 -0.48731,-0.50508 0,-0.73246 1.90709,-0.65964 21.3088,0.81372 9.6364,0.73178 18.33807,1.17718 19.33705,0.98977 1.49513,-0.28048 1.86897,-0.60404 2.11411,-1.82973 0.16379,-0.81894 0.56581,-1.48899 0.89339,-1.48899 1.40879,0 7.35936,4.52272 7.35936,5.59347 0,0.61484 -4.19452,2.47656 -6.41454,2.84707 -1.42336,0.23756 -1.65614,0.11109 -1.9499,-1.05933 l 0,0 z"
       id="path3299"
       inkscape:connector-curvature="0" />
  </g>
</svg>
