<?xml version="1.0" encoding="UTF-8" standalone="no"?>
<!-- Created with Inkscape (http://www.inkscape.org/) -->

<svg
   xmlns:dc="http://purl.org/dc/elements/1.1/"
   xmlns:cc="http://creativecommons.org/ns#"
   xmlns:rdf="http://www.w3.org/1999/02/22-rdf-syntax-ns#"
   xmlns:svg="http://www.w3.org/2000/svg"
   xmlns="http://www.w3.org/2000/svg"
   xmlns:xlink="http://www.w3.org/1999/xlink"
   xmlns:sodipodi="http://sodipodi.sourceforge.net/DTD/sodipodi-0.dtd"
   xmlns:inkscape="http://www.inkscape.org/namespaces/inkscape"
   width="105.14854"
   height="80.584099"
   id="svg11293"
   sodipodi:version="0.32"
   inkscape:version="0.48.0 r9654"
   sodipodi:docname="Regions_of_stomach.svg"
   version="1.0">
  <defs
     id="defs11295" />
  <sodipodi:namedview
     id="base"
     pagecolor="#ffffff"
     bordercolor="#666666"
     borderopacity="1.0"
     gridtolerance="10000"
     guidetolerance="10"
     objecttolerance="10"
     inkscape:pageopacity="0.0"
     inkscape:pageshadow="2"
     inkscape:zoom="5.656854"
     inkscape:cx="69.884913"
     inkscape:cy="43.620498"
     inkscape:document-units="px"
     inkscape:current-layer="layer1"
     inkscape:window-width="1280"
     inkscape:window-height="738"
     inkscape:window-x="-8"
     inkscape:window-y="-8"
     showgrid="false"
     inkscape:window-maximized="1"
     fit-margin-top="0"
     fit-margin-left="0"
     fit-margin-right="0"
     fit-margin-bottom="0" />
  <metadata
     id="metadata11298">
    <rdf:RDF>
      <cc:Work
         rdf:about="">
        <dc:format>image/svg+xml</dc:format>
        <dc:type
           rdf:resource="http://purl.org/dc/dcmitype/StillImage" />
      </cc:Work>
    </rdf:RDF>
  </metadata>
  <g
     inkscape:label="Layer 1"
     inkscape:groupmode="layer"
     id="layer1"
     transform="translate(-197.8006,-358.1157)">
    <path
       id="path11381"
       style="fill:none;stroke:#000000;stroke-width:1.35210991px;stroke-linecap:butt;stroke-linejoin:miter;stroke-opacity:1"
       d="m 262.50682,360.28954 c 1.54364,6.11035 3.19617,14.49291 5.6578,20.29165 6.00502,1.50078 3.649,-9.45015 9.99893,-8.92023 6.64944,-2.73363 13.94663,1.30011 17.78071,6.76968 3.30178,4.9764 2.04734,11.13274 2.31891,16.71531 0.0141,9.67117 -3.01536,20.61565 -12.01856,25.64859 -6.73461,4.16197 -14.52583,6.09506 -22.10343,8.07166 -5.46359,0.52021 -13.39878,-0.98635 -15.0167,-5.15591 -1.19487,-3.5938 -3.38532,-14.39793 -8.03177,-11.81878 -2.13703,-1.02543 -6.30054,9.15822 -3.38596,13.35984 m -5.77559,3.7204 c -9.41193,-8.75486 0.40206,-24.42795 6.62406,-23.11282 2.35221,-3.42093 7.03432,-2.91269 10.72282,-2.52014 3.45341,0.36752 7.17228,5.44813 7.17228,5.44813 4.66526,2.95466 15.42254,-7.0286 12.22475,-15.98848 -0.46744,-4.84501 -9.16388,-6.59761 -11.53395,-15.35021 -4.22921,-8.79956 -2.61833,-6.9958 -4.43267,-16.42407"
       inkscape:connector-curvature="0"
       sodipodi:nodetypes="ccccccccccccscccc" />
    <path
       id="path11381-5"
       style="fill:#ffbc00;fill-opacity:1;stroke:#ffbc00;stroke-width:1.278;stroke-linecap:round;stroke-linejoin:round;stroke-miterlimit:4;stroke-opacity:1;stroke-dasharray:none"
       d="m 261.93468,360.42635 c 1.37907,6.11035 2.13123,9.97898 4.33042,15.77772 l -6.42058,5.15738 c -0.68544,-1.08678 -0.70508,0.17842 -2.3421,-4.20095 -2.92138,-4.8168 -3.81342,-12.06308 -3.99159,-15.47228"
       inkscape:connector-curvature="0"
       sodipodi:nodetypes="ccccc" />
    <path
       sodipodi:type="arc"
       style="fill:#ffbc00;fill-opacity:1;fill-rule:evenodd;stroke:#000000;stroke-width:1px;stroke-linecap:butt;stroke-linejoin:miter;stroke-opacity:1"
       id="path3015"
       sodipodi:cx="135.6922"
       sodipodi:cy="122.02923"
       sodipodi:rx="4.8382955"
       sodipodi:ry="1.6494188"
       d="m 140.5305,122.02923 c 0,0.91095 -2.16618,1.64942 -4.8383,1.64942 -2.67212,0 -4.8383,-0.73847 -4.8383,-1.64942 0,-0.91095 2.16618,-1.64942 4.8383,-1.64942 2.67212,0 4.8383,0.73847 4.8383,1.64942 z"
       transform="translate(122.0409,238.2407)" />
    <path
       style="fill:#119d11;fill-opacity:1;stroke:#119d11;stroke-width:1px;stroke-linecap:butt;stroke-linejoin:miter;stroke-opacity:1"
       d="m 144.48909,138.96326 c 0,0 0.67436,4.40188 2.87358,3.90706 0,0 1.17872,4.46987 1.30495,6.75918 0.12623,2.28931 -0.78321,0.53695 -1.64942,1.04463 -0.8662,0.50768 -3.18887,-1.09961 -3.18887,-1.09961 -1.59444,-1.53946 -5.49807,-5.77297 -5.49807,-5.77297 z"
       id="path3803"
       inkscape:connector-curvature="0"
       transform="translate(122.0409,238.2407)"
       sodipodi:nodetypes="cczzccc" />
    <path
       id="path11381-2"
       style="fill:#ff2a2a;stroke:#ff2a2a;stroke-width:1.30771351;stroke-linecap:butt;stroke-linejoin:miter;stroke-miterlimit:4;stroke-opacity:1;stroke-dasharray:none"
       d="m 269.98105,381.14092 c 4.88517,-1.60841 3.24985,-9.4204 8.31884,-9.01077 6.34442,-2.68042 16.65203,3.28727 17.47172,8.00169 z"
       inkscape:connector-curvature="0"
       sodipodi:nodetypes="cccc" />
    <path
       id="path11381-25"
       style="fill:#800080;stroke:#800080;stroke-width:0;stroke-linecap:butt;stroke-linejoin:miter;stroke-miterlimit:4;stroke-opacity:1;stroke-dasharray:none"
       d="m 264.93879,428.42004 c -3.40627,0.006 -12.64632,0.44793 -15.48842,-4.91296 -0.5,0.6875 7.63992,-13.72552 7.63992,-13.72552 l 1.06488,0.1005 z"
       inkscape:connector-curvature="0"
       sodipodi:nodetypes="ccccc" />
    <path
       style="fill:#ff5555;fill-opacity:1;stroke:#ff5555;stroke-width:0.29733524;stroke-linecap:butt;stroke-linejoin:miter;stroke-miterlimit:4;stroke-opacity:1;stroke-dasharray:none"
       d="m 139.46193,180.8207 -3.24719,-8.95794 1.35737,-0.16199 c 3.61558,-0.67983 8.23923,-5.14543 9.76846,-9.88997 0.73681,-2.28598 0.7699,-4.96335 0.0916,-7.40625 -0.2653,-0.95539 -0.67558,-2.00844 -0.91175,-2.3401 l -0.59433,-0.82294 0.98749,0.0657 c 0,0 1.14418,-0.28852 1.53729,-0.45269 0.68508,-0.28611 0.71475,-0.34935 0.71475,-1.52314 0,-0.67355 -0.2053,-2.1722 -0.45622,-3.33034 -0.25092,-1.15814 -0.54173,-2.33929 -0.54173,-2.33929 l 26.27626,-1.02398 c 0,0 0.27386,0.88403 0.489,1.5493 0.33292,1.02952 0.8293,2.35219 0.90561,8.43576 0.0993,7.91328 -0.62131,10.11225 -1.59763,14.05571 -1.06837,4.31533 -2.30073,7.5537 -4.62063,10.47306 -3.8842,4.88786 -10.66607,8.83974 -23.38168,12.2623 -1.39101,0.3744 -3.18887,0.69264 -3.18887,0.69264 0,0 -1.09968,-2.44301 -3.58776,-9.28587 l 0,0 z"
       id="path3843"
       inkscape:connector-curvature="0"
       transform="translate(122.0409,238.2407)"
       sodipodi:nodetypes="cccsccccssscccsssscccc" />
    <path
       style="fill:#4c4cff;fill-opacity:1;stroke:#0000ff;stroke-width:0.12672362;stroke-linecap:round;stroke-linejoin:miter;stroke-miterlimit:4;stroke-opacity:1;stroke-dasharray:none"
       d="m 248.95646,421.73755 c -1.05158,-3.5983 -1.71504,-5.42893 -2.6009,-7.17653 -1.30495,-2.57433 -2.36944,-3.61057 -4.0254,-3.68269 l -1.62783,0.29315 c 0,0 -1.10307,-1.29061 -1.4848,-2.10681 -0.38172,-0.81621 -1.06462,-2.88637 -1.06462,-2.88637 0,0 0.57997,-0.8471 1.3122,-1.45093 0.73224,-0.60385 1.70127,-0.97246 2.3917,-1.14763 1.4432,-0.36613 3.9079,-0.40183 6.53421,-0.0946 1.61032,0.18837 2.32507,0.4881 3.90762,1.63871 0.76079,0.55311 2.70568,2.49374 3.35839,3.35099 0.3869,0.50814 0.66125,0.63154 1.01116,0.9253 0.14717,0.12356 0.45693,0.35148 0.45693,0.35148 0,0 -7.61415,13.55594 -7.65567,13.55594 -0.0298,0 -0.26064,-0.7065 -0.51299,-1.56998 z"
       id="path3849"
       inkscape:connector-curvature="0"
       sodipodi:nodetypes="cscczczscssacscc" />
    <path
       style="fill:#ff6600;stroke:#000000;stroke-width:1px;stroke-linecap:butt;stroke-linejoin:miter;stroke-opacity:1"
       d="m 109.5625,190.59973 5.5625,-3.6875"
       id="path3851"
       inkscape:connector-curvature="0"
       transform="translate(122.0409,238.2407)" />
    <path
       style="fill:#ff6600;fill-opacity:1;stroke:none"
       d="m 107.46106,186.43101 c 0,0 -0.3828,-0.74129 -0.76364,-3.04337 -0.0854,-0.516 -0.14298,-0.58707 -0.14378,-1.65728 -9.2e-4,-1.28808 0.0791,-1.71771 0.287,-2.78423 0.4702,-2.41228 1.6069,-4.8954 3.12667,-6.91639 1.1789,-1.56771 2.69392,-2.97805 4.02222,-3.55621 0.59715,-0.25992 1.6904,-0.42131 2.07061,-0.35708 0.17037,0.0288 0.0869,0.16758 0.18638,0.47975 0.17142,0.53786 0.75022,1.72196 0.92984,2.11073 0.18752,0.4059 0.46034,1.06497 0.98272,1.73726 l 0.5397,0.50492 -0.3951,0.16208 c -0.38188,0.12852 -0.63735,0.31419 -1.05928,0.75994 -1.38355,1.46162 -2.8339,4.69529 -3.18548,7.68246 -0.0878,0.74615 -0.0994,2.21185 -0.0222,2.80633 0.0973,0.74916 0.44122,1.79925 0.68655,2.39462 0.0328,0.0797 -0.20869,0.30458 -3.3486,2.17704 l -1.47887,0.88191 c -1.0625,-0.73437 -2.43472,-3.38249 -2.43472,-3.38249 z"
       id="path3855"
       inkscape:connector-curvature="0"
       transform="translate(122.0409,238.2407)"
       sodipodi:nodetypes="ccccsscccsccscccsccc" />
    <text
       xml:space="preserve"
       style="font-size:12px;font-style:normal;font-weight:normal;line-height:125%;letter-spacing:0px;word-spacing:0px;fill:#000000;fill-opacity:1;stroke:none;font-family:Sans"
       x="152.5"
       y="163.16223"
       id="text3857"
       sodipodi:linespacing="125%"
       transform="translate(122.0409,238.2407)"><tspan
         sodipodi:role="line"
         id="tspan3859"
         x="152.5"
         y="163.16223" /></text>
    <text
       xml:space="preserve"
       style="font-size:40px;font-style:normal;font-weight:normal;line-height:125%;letter-spacing:0px;word-spacing:0px;fill:#000000;fill-opacity:1;stroke:none;font-family:Sans"
       x="273.54089"
       y="404.15292"
       id="text3861"
       sodipodi:linespacing="125%"><tspan
         sodipodi:role="line"
         id="tspan3863"
         x="273.54089"
         y="404.15292"
         style="font-size:6px;font-weight:bold;-inkscape-font-specification:Sans Bold">Body</tspan></text>
    <text
       xml:space="preserve"
       style="font-size:28.54105568px;font-style:normal;font-weight:normal;line-height:125%;letter-spacing:0px;word-spacing:0px;fill:#000000;fill-opacity:1;stroke:none;font-family:Sans"
       x="275.49182"
       y="378.43918"
       id="text3861-9"
       sodipodi:linespacing="125%"><tspan
         sodipodi:role="line"
         id="tspan3863-3"
         x="275.49182"
         y="378.43918"
         style="font-size:4.28115845px;font-weight:bold;-inkscape-font-specification:Sans Bold">Fundus</tspan></text>
    <text
       xml:space="preserve"
       style="font-size:17.71939468px;font-style:normal;font-weight:normal;line-height:125%;letter-spacing:0px;word-spacing:0px;fill:#000000;fill-opacity:1;stroke:none;font-family:Sans"
       x="243.87613"
       y="407.70822"
       id="text3861-9-2"
       sodipodi:linespacing="125%"><tspan
         sodipodi:role="line"
         id="tspan3863-3-6"
         x="243.87613"
         y="407.70822"
         style="font-size:2.65790915px;font-weight:bold;-inkscape-font-specification:Sans Bold">Pyloric</tspan><tspan
         sodipodi:role="line"
         x="243.87613"
         y="411.03061"
         style="font-size:2.65790915px;font-weight:bold;-inkscape-font-specification:Sans Bold"
         id="tspan3907">canal</tspan></text>
    <text
       xml:space="preserve"
       style="font-size:40px;font-style:normal;font-weight:normal;line-height:125%;letter-spacing:0px;word-spacing:0px;fill:#000000;fill-opacity:1;stroke:none;font-family:Sans"
       x="246.29089"
       y="433.65292"
       id="text3909"
       sodipodi:linespacing="125%"><tspan
         sodipodi:role="line"
         id="tspan3911"
         x="246.29089"
         y="433.65292"
         style="font-size:4px">Pyloric</tspan><tspan
         sodipodi:role="line"
         x="246.29089"
         y="438.65292"
         id="tspan3913"
         style="font-size:4px">antrum</tspan></text>
    <text
       xml:space="preserve"
       style="font-size:40px;font-style:normal;font-weight:normal;line-height:125%;letter-spacing:0px;word-spacing:0px;fill:#000000;fill-opacity:1;stroke:none;font-family:Sans"
       x="206.61902"
       y="411.56113"
       id="text3909-2"
       sodipodi:linespacing="125%"><tspan
         sodipodi:role="line"
         x="206.61902"
         y="411.56113"
         id="tspan3913-3"
         style="font-size:4px">Duodenum</tspan></text>
    <text
       xml:space="preserve"
       style="font-size:40px;font-style:normal;font-weight:normal;line-height:125%;letter-spacing:0px;word-spacing:0px;fill:#000000;fill-opacity:1;stroke:none;font-family:Sans"
       x="247.86902"
       y="390.06113"
       id="text3909-5"
       sodipodi:linespacing="125%"><tspan
         sodipodi:role="line"
         x="247.86902"
         y="390.06113"
         id="tspan3913-6"
         style="font-size:4px">Cardia</tspan></text>
    <text
       xml:space="preserve"
       style="font-size:40px;font-style:normal;font-weight:normal;line-height:125%;letter-spacing:0px;word-spacing:0px;fill:#000000;fill-opacity:1;stroke:none;font-family:Sans"
       x="230.11902"
       y="370.56113"
       id="text3909-9"
       sodipodi:linespacing="125%"><tspan
         sodipodi:role="line"
         x="230.11902"
         y="370.56113"
         id="tspan3913-2"
         style="font-size:4px">Esophagus</tspan></text>
    <text
       xml:space="preserve"
       style="font-size:40px;font-style:normal;font-weight:normal;line-height:125%;letter-spacing:0px;word-spacing:0px;fill:#000000;fill-opacity:1;stroke:none;font-family:Sans"
       x="266.11902"
       y="363.31113"
       id="text3909-4"
       sodipodi:linespacing="125%"><tspan
         sodipodi:role="line"
         x="266.11902"
         y="363.31113"
         id="tspan3913-29"
         style="font-size:4px">Cardial</tspan><tspan
         sodipodi:role="line"
         x="266.11902"
         y="368.31113"
         style="font-size:4px"
         id="tspan4139">notch</tspan></text>
    <text
       xml:space="preserve"
       style="font-size:29.23267746px;font-style:normal;font-weight:normal;line-height:125%;letter-spacing:0px;word-spacing:0px;fill:#000000;fill-opacity:1;stroke:none;font-family:Sans"
       id="text3909-54"
       sodipodi:linespacing="125%"><textPath
         xlink:href="#path11381-8"
         id="textPath4136"><tspan
   style="font-size:2.19245076px"
   id="tspan3913-4">Lesser Curvature</tspan></textPath></text>
    <text
       xml:space="preserve"
       style="font-size:50.09074402px;font-style:normal;font-weight:normal;line-height:125%;letter-spacing:0px;word-spacing:0px;fill:#000000;fill-opacity:1;stroke:none;font-family:Sans"
       id="text3909-4-4"
       sodipodi:linespacing="125%"
       transform="translate(67.351921,2.298097)"><textPath
         xlink:href="#path11381-1"
         id="textPath4103"><tspan
   style="font-size:5.00907421px"
   id="tspan3913-29-9">Greater Curvature</tspan></textPath></text>
    <path
       id="path11381-1"
       style="fill:none;stroke:none"
       d="m 231.92259,394.46618 c 0.0141,9.67118 -3.01536,20.61566 -12.01856,25.6486 -6.73461,4.16197 -14.52583,6.09505 -22.10343,8.07166"
       inkscape:connector-curvature="0"
       sodipodi:nodetypes="ccc" />
    <path
       id="path11381-8"
       style="fill:none;stroke:none"
       d="m 259.80396,408.23973 c 2.0578,0.12623 11.79861,-7.91249 7.89371,-17.18173"
       inkscape:connector-curvature="0"
       sodipodi:nodetypes="cc" />
    <path
       style="fill:none;stroke:#000000;stroke-width:0.40000001;stroke-linecap:butt;stroke-linejoin:miter;stroke-miterlimit:4;stroke-opacity:1;stroke-dasharray:none"
       d="m 149.25,131.16223 -2,9.5"
       id="path4141"
       inkscape:connector-curvature="0"
       transform="translate(122.0409,238.2407)"
       sodipodi:nodetypes="cc" />
    <path
       style="color:#000000;fill:none;stroke:#000000;stroke-width:0.40000001;stroke-linecap:butt;stroke-linejoin:miter;stroke-miterlimit:4;stroke-opacity:1;stroke-dasharray:none;stroke-dashoffset:0;marker:none;visibility:visible;display:inline;overflow:visible;enable-background:accumulate"
       d="m 136.25,149.16223 5.5,-3.75"
       id="path4143"
       inkscape:connector-curvature="0"
       transform="translate(122.0409,238.2407)" />
    <path
       style="color:#000000;fill:none;stroke:#000000;stroke-width:0.40000001;stroke-linecap:butt;stroke-linejoin:miter;stroke-miterlimit:4;stroke-opacity:1;stroke-dasharray:none;stroke-dashoffset:0;marker:none;visibility:visible;display:inline;overflow:visible;enable-background:accumulate"
       d="m 128.25,134.41223 7.5,4.5"
       id="path4145"
       inkscape:connector-curvature="0"
       transform="translate(122.0409,238.2407)" />
    <path
       style="color:#000000;fill:none;stroke:#000000;stroke-width:0.40000001;stroke-linecap:butt;stroke-linejoin:miter;stroke-miterlimit:4;stroke-opacity:1;stroke-dasharray:none;stroke-dashoffset:0;marker:none;visibility:visible;display:inline;overflow:visible;enable-background:accumulate"
       d="m 129.5,191.41223 2.5,-6.75"
       id="path4147"
       inkscape:connector-curvature="0"
       transform="translate(122.0409,238.2407)" />
    <path
       style="color:#000000;fill:none;stroke:#000000;stroke-width:0.40000001;stroke-linecap:butt;stroke-linejoin:miter;stroke-miterlimit:4;stroke-opacity:1;stroke-dasharray:none;stroke-dashoffset:0;marker:none;visibility:visible;display:inline;overflow:visible;enable-background:accumulate"
       d="m 102.25,174.41223 6.75,3.75"
       id="path4149"
       inkscape:connector-curvature="0"
       transform="translate(122.0409,238.2407)" />
    <text
       xml:space="preserve"
       style="font-size:40px;font-style:normal;font-weight:normal;line-height:125%;letter-spacing:0px;word-spacing:0px;fill:#000000;fill-opacity:1;stroke:none;font-family:Sans"
       x="223.44313"
       y="400.53345"
       id="text3909-5-1"
       sodipodi:linespacing="125%"><tspan
         sodipodi:role="line"
         x="223.44313"
         y="400.53345"
         id="tspan3913-6-7"
         style="font-size:4px">Pylorus</tspan></text>
    <path
       style="fill:none;stroke:#000000;stroke-width:0.40000001000000002;stroke-linecap:butt;stroke-linejoin:miter;stroke-opacity:1;color:#000000;stroke-miterlimit:4;stroke-dasharray:none;stroke-dashoffset:0;marker:none;visibility:visible;display:inline;overflow:visible;enable-background:accumulate"
       d="m 35.797281,43.195828 3.889087,3.447145"
       id="path3047"
       inkscape:connector-curvature="0"
       transform="translate(197.8006,358.1157)" />
    <text
       xml:space="preserve"
       style="font-size:27.48508263px;font-style:normal;font-weight:normal;line-height:125%;letter-spacing:0px;word-spacing:0px;fill:#000000;fill-opacity:1;stroke:none;font-family:Sans"
       x="252.79204"
       y="395.74854"
       id="text3909-5-17"
       sodipodi:linespacing="125%"><tspan
         sodipodi:role="line"
         x="252.79204"
         y="395.74854"
         id="tspan3913-6-4"
         style="font-size:2.74850821px">Angular</tspan><tspan
         sodipodi:role="line"
         x="252.79204"
         y="399.18417"
         style="font-size:2.74850821px"
         id="tspan3050">incisure</tspan></text>
    <path
       style="color:#000000;fill:none;stroke:#000000;stroke-width:0.40000001;stroke-linecap:butt;stroke-linejoin:miter;stroke-miterlimit:4;stroke-opacity:1;stroke-dasharray:none;stroke-dashoffset:0;marker:none;visibility:visible;display:inline;overflow:visible;enable-background:accumulate"
       d="m 59.220195,41.870001 0.176777,7.778175"
       id="path3052"
       inkscape:connector-curvature="0"
       transform="translate(197.8006,358.1157)"
       sodipodi:nodetypes="cc" />
  </g>
</svg>
